<svg width="204px" height="245px" viewBox="0 0 204 245" version="1.1" xmlns="http://www.w3.org/2000/svg" xmlns:xlink="http://www.w3.org/1999/xlink">
    <g id="Desktop" stroke="none" stroke-width="1" fill="none" fill-rule="evenodd">
        <g id="03.32.-Support-Points-Desktop-|-Profile-client-|-Empty" transform="translate(-619.000000, -1018.000000)">
            <g id="Group-2-Copy-4" transform="translate(611.000000, 1019.000000)">
                <g id="Group-4">
                    <path d="M31.1975,148.95 L31.1975,179.1 C31.1975,179.685 30.9275,180 30.3425,180 L27.9125,180 C27.4175,180 27.1025,179.775 26.8775,179.325 L13.4675,153.945 C12.9275,152.91 12.2975,151.74 11.8025,150.615 L10.7675,150.615 C10.8125,151.74 10.8125,152.865 10.8125,153.99 L10.8125,180 L8.9675,180 L8.9675,149.85 C8.9675,149.265 9.2825,148.95 9.8675,148.95 L12.1175,148.95 C12.6125,148.95 12.9725,149.175 13.1975,149.625 L26.2475,174.42 C26.9225,175.635 27.5975,176.985 28.2725,178.29 L29.3975,178.29 C29.3975,176.85 29.3525,175.455 29.3525,174.06 L29.3525,148.95 L31.1975,148.95 Z M48.2975,157.77 C55.4075,157.77 57.9725,160.83 57.9725,169.155 C57.9725,177.525 55.4075,180.54 48.2975,180.54 C41.1875,180.54 38.6225,177.525 38.6225,169.155 C38.6225,160.83 41.1875,157.77 48.2975,157.77 Z M48.2975,159.39 C42.5375,159.39 40.5125,161.73 40.5125,169.155 C40.5125,176.58 42.5375,178.965 48.2975,178.965 C54.0575,178.965 56.1275,176.58 56.1275,169.155 C56.1275,161.73 54.0575,159.39 48.2975,159.39 Z M75.7025,159.84 L67.9625,159.84 L67.9625,175.23 C67.9625,177.57 69.1325,178.65 71.4275,178.65 L75.2075,178.65 L75.4325,179.955 C74.1725,180.18 72.1475,180.315 71.2925,180.315 C67.8725,180.315 66.1625,178.56 66.1625,175.41 L66.1625,159.84 L62.2475,159.84 L62.2475,158.535 L66.1625,158.31 L66.1625,151.605 L67.9625,151.605 L67.9625,158.31 L75.7025,158.31 L75.7025,159.84 Z M92.8025,157.77 C96.6725,157.77 98.6525,159.795 98.6525,163.71 L98.6525,180 L96.8525,180 L96.8525,164.07 C96.8525,160.785 95.4575,159.39 92.3975,159.39 C89.2925,159.39 86.6375,160.83 82.6775,163.53 L82.6775,180 L80.8775,180 L80.8775,148.5 L82.6775,148.5 L82.7225,157.905 C82.7225,159.525 82.6775,160.965 82.4975,162.135 C86.0975,159.435 89.5175,157.77 92.8025,157.77 Z M108.1025,149.265 C108.5525,149.265 108.7775,149.535 108.7775,149.985 L108.7775,152.685 C108.7775,153.18 108.5525,153.405 108.1025,153.405 L107.2925,153.405 C106.7975,153.405 106.5725,153.18 106.5725,152.685 L106.5725,149.985 C106.5725,149.535 106.7975,149.265 107.2925,149.265 L108.1025,149.265 Z M108.5525,158.31 L108.5525,180 L106.7975,180 L106.7975,158.31 L108.5525,158.31 Z M128.8025,157.77 C132.6275,157.77 134.6525,159.795 134.6525,163.71 L134.6525,180 L132.8525,180 L132.8525,164.07 C132.8525,160.785 131.4125,159.39 128.3975,159.39 C125.2925,159.39 122.6375,160.83 118.6325,163.53 L118.6325,180 L116.8775,180 L116.8775,158.31 L118.3175,158.31 L118.4975,162.135 C122.0975,159.255 125.4725,157.77 128.8025,157.77 Z M162.0125,158.31 L161.8775,159.48 L157.6925,159.66 C158.9075,160.785 159.4475,162.405 159.4475,164.565 C159.4475,169.11 157.0625,171.27 150.6725,171.27 C148.4225,171.27 146.7125,171 145.3625,170.46 C143.6525,172.485 143.6525,175.14 147.2075,175.77 L155.7575,177.255 C159.6275,177.885 160.6625,179.595 160.6625,183.06 C160.6625,187.785 158.0075,189.405 150.9425,189.405 C143.5625,189.405 140.9525,187.785 140.9525,183.105 C140.9525,180.135 141.5825,178.47 144.1925,177.12 L144.8675,176.76 C141.8525,175.365 142.1675,171.81 144.3725,169.965 C142.6175,168.885 141.8525,167.085 141.8525,164.565 C141.8525,160.02 144.2825,157.77 150.7175,157.77 C152.5175,157.77 154.0025,157.95 155.2175,158.31 L162.0125,158.31 Z M150.6725,169.785 C155.8925,169.785 157.7375,168.12 157.7375,164.565 C157.7375,161.01 155.9375,159.255 150.6725,159.255 C145.4525,159.255 143.5625,161.01 143.5625,164.565 C143.5625,168.12 145.4975,169.785 150.6725,169.785 Z M158.9075,183.015 C158.9075,180.315 158.2325,179.235 155.0375,178.65 L146.3525,177.21 L146.2625,177.21 L145.3175,177.795 C143.2475,179.1 142.7075,180.405 142.7075,183.015 C142.7075,186.66 144.8225,187.83 150.8975,187.83 C156.7925,187.83 158.9075,186.615 158.9075,183.015 Z M187.5725,159.84 L179.8325,159.84 L179.8325,175.23 C179.8325,177.57 181.0025,178.65 183.2975,178.65 L187.0775,178.65 L187.3025,179.955 C186.0425,180.18 184.0175,180.315 183.1625,180.315 C179.7425,180.315 178.0325,178.56 178.0325,175.41 L178.0325,159.84 L174.1175,159.84 L174.1175,158.535 L178.0325,158.31 L178.0325,151.605 L179.8325,151.605 L179.8325,158.31 L187.5725,158.31 L187.5725,159.84 Z M201.3425,157.77 C208.4525,157.77 211.0175,160.83 211.0175,169.155 C211.0175,177.525 208.4525,180.54 201.3425,180.54 C194.2325,180.54 191.6675,177.525 191.6675,169.155 C191.6675,160.83 194.2325,157.77 201.3425,157.77 Z M201.3425,159.39 C195.5825,159.39 193.5575,161.73 193.5575,169.155 C193.5575,176.58 195.5825,178.965 201.3425,178.965 C207.1025,178.965 209.1725,176.58 209.1725,169.155 C209.1725,161.73 207.1025,159.39 201.3425,159.39 Z M57.05,202.5 L58.805,202.5 L58.805,234 L57.455,234 L57.185,230.4 C54.215,233.01 51.425,234.54 48.32,234.54 C42.695,234.54 40.535,231.21 40.535,223.155 C40.535,214.875 42.83,211.77 48.5,211.77 C51.38,211.77 54.17,212.58 57.185,213.93 C57.005,212.445 57.05,211.32 57.05,209.745 L57.05,202.5 Z M42.38,223.11 C42.38,230.4 44.18,232.92 48.68,232.92 C51.425,232.92 53.63,231.705 57.05,228.915 L57.05,215.325 C53.72,214.065 51.425,213.39 48.725,213.39 C44.18,213.39 42.38,215.865 42.38,223.11 Z M68.435,203.265 C68.885,203.265 69.11,203.535 69.11,203.985 L69.11,206.685 C69.11,207.18 68.885,207.405 68.435,207.405 L67.625,207.405 C67.13,207.405 66.905,207.18 66.905,206.685 L66.905,203.985 C66.905,203.535 67.13,203.265 67.625,203.265 L68.435,203.265 Z M68.885,212.31 L68.885,234 L67.13,234 L67.13,212.31 L68.885,212.31 Z M83.87,211.77 C86.57,211.815 89.81,211.995 92.465,212.355 L92.285,213.66 C89.63,213.525 86.705,213.39 84.05,213.345 C79.415,213.255 77.525,213.39 77.525,217.575 C77.525,220.545 78.785,221.445 81.035,221.76 L88.1,222.795 C91.295,223.335 93.05,224.91 93.05,228.42 C93.05,233.91 89.99,234.495 84.32,234.495 C82.34,234.495 79.685,234.45 76.265,233.955 L76.445,232.65 C79.1,232.875 81.26,232.965 84.14,232.92 C89.405,232.875 91.295,232.29 91.295,228.42 C91.295,225.54 89.675,224.685 87.56,224.325 L80.495,223.29 C77.345,222.795 75.77,221.265 75.77,217.575 C75.77,212.22 78.425,211.68 83.87,211.77 Z M110.375,211.77 C115.955,211.77 118.115,215.145 118.115,223.2 C118.115,231.435 115.82,234.54 110.15,234.54 C107.27,234.54 104.39,233.73 101.375,232.155 C101.555,233.73 101.51,234.855 101.51,236.385 L101.51,243.36 L99.755,243.36 L99.755,212.31 L101.15,212.31 L101.375,216.135 C104.3,213.3 107.315,211.77 110.375,211.77 Z M109.925,232.92 C114.47,232.92 116.27,230.445 116.27,223.2 C116.27,216 114.515,213.39 110.015,213.39 C107.315,213.39 104.975,214.65 101.51,217.485 L101.51,230.94 C104.885,232.2 107.225,232.92 109.925,232.92 Z M127.025,202.5 L126.98,229.23 C126.98,231.48 128.24,232.65 130.445,232.65 L132.92,232.65 L133.145,233.955 C132.47,234.18 130.85,234.315 129.995,234.315 C127.115,234.315 125.225,232.605 125.225,229.5 L125.225,202.5 L127.025,202.5 Z M147.635,211.77 C151.64,211.77 154.025,213.48 154.025,218.07 L154.025,234 L152.675,234 L152.36,229.95 C150.515,231.795 146.375,234.315 142.28,234.315 C138.59,234.315 136.385,232.29 136.385,228.69 L136.385,225.99 C136.385,222.705 138.365,220.815 141.785,220.815 L152.225,220.815 L152.225,218.07 C152.225,215.325 151.145,213.39 147.41,213.39 C144.395,213.39 140.705,213.705 137.465,214.065 L137.285,212.715 C140.21,212.31 143.45,211.77 147.635,211.77 Z M142.46,232.65 C145.475,232.74 149.66,230.94 152.225,228.51 L152.225,222.255 L141.965,222.39 C139.445,222.435 138.23,223.74 138.23,226.125 L138.23,228.555 C138.23,231.255 139.625,232.605 142.46,232.65 Z M177.875,212.31 L179.765,212.31 L170.135,235.89 C168.65,239.535 166.76,242.505 162.485,243.405 L162.215,242.28 C165.77,240.975 167.345,238.545 168.515,235.53 L169.145,234 L168.56,234 C168.2,234 167.93,233.82 167.795,233.46 L159.155,212.31 L161.09,212.31 L168.2,230.085 C168.515,230.895 168.875,231.705 169.145,232.515 L169.775,232.515 C170.09,231.705 170.405,230.805 170.72,230.04 L177.875,212.31 Z" id="Nothing-to-display" fill="#9E9E9E"></path>
                    <g id="no_icn" transform="translate(56.000000, 0.000000)">
                        <path d="M53.6632322,107.254734 C60.3160935,107.254734 66.6842349,106.030426 72.5564736,103.793908 C76.6991522,105.950113 87.5200292,111.180546 95.8312802,114.74644 C94.6673864,109.987505 91.8620604,96.5630255 91.0059014,91.9179899 C100.850913,82.2062657 106.957204,68.6843466 106.957204,53.7300527 C106.957204,24.1691873 83.0966801,0.205371108 53.6632322,0.205371108 C24.2297844,0.205371108 0.369260497,24.1691873 0.369260497,53.7300527 C0.369260497,83.2909181 24.2297844,107.254734 53.6632322,107.254734 Z" id="Oval-4" stroke="#9E9E9E" stroke-width="1.5" stroke-linecap="round" stroke-linejoin="round"></path>
                        <path d="M34.4975372,71.0864287 L73.0960779,71.0864287" id="Line" stroke="#9E9E9E" stroke-width="1.5" stroke-linecap="round"></path>
                        <g id="Group" transform="translate(38.543643, 38.639619)" fill="#9E9E9E">
                            <ellipse id="Oval" cx="2.51850669" cy="2.52940932" rx="2.51850669" ry="2.52940932"></ellipse>
                            <ellipse id="Oval-Copy" cx="27.149371" cy="2.52940932" rx="2.51850669" ry="2.52940932"></ellipse>
                        </g>
                    </g>
                </g>
            </g>
        </g>
    </g>
</svg>
